Coordinates
version=1
nRows=21
nColumns=22
inDegrees=yes

Units are S.I. units (second, meters, Newtons, ...)
If the header above contains a line with 'inDegrees', this indicates whether rotational values are in degrees (yes) or radians (no).

endheader
time	pelvis_tilt	pelvis_list	pelvis_rotation	pelvis_tx	pelvis_ty	pelvis_tz	hip_flexion_r	hip_adduction_r	hip_rotation_r	knee_angle_r	ankle_angle_r	subtalar_angle_r	hip_flexion_l	hip_adduction_l	hip_rotation_l	knee_angle_l	ankle_angle_l	subtalar_angle_l	lumbar_extension	lumbar_bending	lumbar_rotation
      3.74000000	     -6.77913189	      0.39042870	    -40.60496150	      0.18621172	      0.88355261	      0.32237100	     25.61353139	     -1.30354384	      1.64789226	    -44.50710504	      8.06339401	      6.60110025	      7.65632417	     -1.32102586	      1.84565143	    -13.11389910	     16.15366491	      2.72484993	     -0.94241747	     -0.06927511	      9.88241651
      3.75000000	     -6.62005048	      0.36812521	    -40.43897660	      0.19102839	      0.88329112	      0.32513894	     25.95624782	     -1.35410533	      1.71816382	    -42.81679941	      8.03222746	      6.52859414	      6.98706702	     -1.15075722	      1.96851739	    -12.83296676	     16.36303134	      2.60536640	     -1.04400869	     -0.09080240	      9.63566172
      3.76000000	     -6.47277818	      0.35602838	    -40.27444243	      0.19582936	      0.88296403	      0.32796372	     26.27941114	     -1.40324419	      1.79377649	    -41.04924363	      7.93062442	      6.47875911	      6.32759906	     -0.98485201	      2.09140684	    -12.54429245	     16.56615079	      2.46795955	     -1.13326639	     -0.11143988	      9.39030666
      3.77000000	     -6.31880630	      0.34855012	    -40.11684855	      0.20060134	      0.88259552	      0.33085374	     26.56105534	     -1.45538852	      1.88722810	    -39.20278397	      7.76854409	      6.45551531	      5.66300357	     -0.81570383	      2.21875022	    -12.25940080	     16.77234089	      2.28852164	     -1.23385457	     -0.14586179	      9.16789873
      3.78000000	     -6.18087896	      0.35384868	    -39.96361262	      0.20536860	      0.88215302	      0.33381596	     26.82669141	     -1.50700529	      1.97895969	    -37.28555432	      7.52734999	      6.47769194	      5.00864885	     -0.65262837	      2.33365945	    -11.95908578	     16.96474872	      2.10793475	     -1.31564602	     -0.17752357	      8.94204965
      3.79000000	     -6.04599992	      0.36825958	    -39.81916199	      0.21013657	      0.88165087	      0.33685309	     27.06206402	     -1.56246533	      2.07506764	    -35.30212993	      7.22467949	      6.54398829	      4.35062402	     -0.48877246	      2.43875872	    -11.64620012	     17.15357883	      1.91985854	     -1.39246909	     -0.21569116	      8.72839109
      3.80000000	     -5.91807724	      0.39497934	    -39.68277171	      0.21492818	      0.88107740	      0.33996922	     27.27627689	     -1.62429575	      2.16665286	    -33.26682488	      6.86929876	      6.64878628	      3.68923644	     -0.32437463	      2.52660652	    -11.31209984	     17.34024022	      1.73674364	     -1.45639718	     -0.25597791	      8.51428984
      3.81000000	     -5.77529636	      0.42691605	    -39.55028509	      0.21974025	      0.88046496	      0.34314708	     27.44458883	     -1.70286375	      2.25227807	    -31.18241528	      6.49481668	      6.80168688	      3.01315302	     -0.14890655	      2.62590564	    -10.98103961	     17.53259747	      1.54134036	     -1.53561310	     -0.31215290	      8.33355435
      3.82000000	     -5.64719970	      0.47338515	    -39.42032663	      0.22459042	      0.87976646	      0.34641392	     27.60733155	     -1.78579283	      2.31471328	    -29.07528898	      6.09672033	      6.96563622	      2.34023681	      0.02093076	      2.70100723	    -10.62643278	     17.73172082	      1.37937186	     -1.59160183	     -0.36824088	      8.12957821
      3.83000000	     -5.50973264	      0.53071988	    -39.28736061	      0.22947275	      0.87901670	      0.34973437	     27.74303195	     -1.88704187	      2.35594346	    -26.95374239	      5.70299590	      7.15133917	      1.65981257	      0.20153407	      2.79050823	    -10.27076053	     17.93716034	      1.23023554	     -1.65435127	     -0.44103982	      7.95043612
      3.84000000	     -5.39287008	      0.60391968	    -39.15424849	      0.23438508	      0.87817427	      0.35314804	     27.89254534	     -1.98575784	      2.36275088	    -24.84911877	      5.30148772	      7.31716654	      0.98894225	      0.37083127	      2.86388880	     -9.89138219	     18.14857791	      1.12303468	     -1.68730602	     -0.51131576	      7.74220650
      3.85000000	     -5.26419537	      0.67985463	    -39.01612953	      0.23934810	      0.87728855	      0.35662227	     28.01639751	     -2.09605545	      2.32833299	    -22.76411156	      4.92885421	      7.49750951	      0.30400090	      0.54501094	      2.95625459	     -9.51650309	     18.37132970	      1.02852119	     -1.73276597	     -0.59246677	      7.55171889
      3.86000000	     -5.14879158	      0.77136107	    -38.87136373	      0.24433782	      0.87632083	      0.36016883	     28.15806743	     -2.20674533	      2.24765071	    -20.73255285	      4.56527119	      7.67642668	     -0.36495831	      0.71493453	      3.05411386	     -9.14023986	     18.59994086	      0.95606227	     -1.75876254	     -0.67838059	      7.35258433
      3.87000000	     -5.05056686	      0.87107398	    -38.71915065	      0.24935652	      0.87527282	      0.36378906	     28.31864942	     -2.30787352	      2.11512527	    -18.76959547	      4.21131571	      7.85636444	     -1.01588851	      0.87184259	      3.15758532	     -8.77080600	     18.83615133	      0.90034239	     -1.76660960	     -0.75881161	      7.13762827
      3.88000000	     -4.96550306	      0.97774506	    -38.55955864	      0.25439454	      0.87415001	      0.36747361	     28.49722018	     -2.39864685	      1.93179247	    -16.88963606	      3.87251520	      8.05398532	     -1.64240818	      1.01978163	      3.27109542	     -8.42711612	     19.08625343	      0.84928086	     -1.76300838	     -0.83642033	      6.91776059
      3.89000000	     -4.90226316	      1.08863529	    -38.39397211	      0.25944685	      0.87294318	      0.37122471	     28.70213368	     -2.46902139	      1.70069907	    -15.10767273	      3.55146175	      8.26912784	     -2.23320096	      1.15136227	      3.38796060	     -8.12004505	     19.35356345	      0.79720461	     -1.74182104	     -0.90164421	      6.68960578
      3.90000000	     -4.85227945	      1.19550847	    -38.22572709	      0.26450604	      0.87167164	      0.37505758	     28.92615238	     -2.51568547	      1.42006087	    -13.44383132	      3.24732386	      8.52063657	     -2.79732806	      1.26502141	      3.49941537	     -7.85686652	     19.64186742	      0.73164628	     -1.71681151	     -0.95723620	      6.45807937
      3.91000000	     -4.82090101	      1.29659045	    -38.05511656	      0.26960690	      0.87032972	      0.37893768	     29.16604439	     -2.53709123	      1.10878251	    -11.89598171	      2.97221643	      8.79849255	     -3.32650507	      1.36262842	      3.61187290	     -7.64929863	     19.95588962	      0.65044135	     -1.68263393	     -0.98412657	      6.22198652
      3.92000000	     -4.80669552	      1.38400648	    -37.88125962	      0.27470770	      0.86893687	      0.38291860	     29.42018584	     -2.52456544	      0.75491013	    -10.48283434	      2.72878814	      9.09189305	     -3.82424409	      1.43179896	      3.71698525	     -7.50098831	     20.29162510	      0.55033259	     -1.64768436	     -0.99377516	      5.98908914
      3.93000000	     -4.80213724	      1.45783110	    -37.70426463	      0.27983996	      0.86750412	      0.38696421	     29.67892129	     -2.48867537	      0.38155129	     -9.20636903	      2.52064052	      9.39448976	     -4.29647461	      1.48293435	      3.82744794	     -7.41390026	     20.65622683	      0.42791084	     -1.61819541	     -0.98040747	      5.75018751
      3.94000000	     -4.81033464	      1.51214980	    -37.52001192	      0.28499543	      0.86604300	      0.39109382	     29.93972351	     -2.42452685	     -0.02414602	     -8.07393465	      2.35518016	      9.67034156	     -4.74148605	      1.50552711	      3.94670594	     -7.39317273	     21.04351752	      0.28921323	     -1.59493623	     -0.94158360	      5.51371260
